<?xml version="1.0" standalone="no"?>
<!DOCTYPE svg PUBLIC "-//W3C//DTD SVG 20010904//EN"
 "http://www.w3.org/TR/2001/REC-SVG-20010904/DTD/svg10.dtd">
<svg version="1.0" xmlns="http://www.w3.org/2000/svg"
 width="512.000000pt" height="512.000000pt" viewBox="0 0 512.000000 512.000000"
 preserveAspectRatio="xMidYMid meet">

<g transform="translate(0.000000,512.000000) scale(0.100000,-0.100000)"
fill="#000000" stroke="none">
<path d="M2500 4838 c-43 -7 -124 -30 -360 -100 -58 -17 -123 -39 -144 -50
-22 -10 -46 -18 -53 -18 -54 0 -277 -163 -423 -310 -165 -165 -326 -384 -420
-570 -49 -97 -120 -301 -165 -475 -75 -286 -90 -478 -56 -697 29 -187 28 -342
-3 -533 -28 -170 -53 -632 -42 -775 12 -156 39 -259 72 -278 14 -8 11 -13 -17
-33 -60 -42 -109 -92 -109 -110 0 -10 17 -53 37 -94 l38 -76 -24 -42 c-137
-246 -177 -333 -241 -529 l-48 -148 113 0 112 0 6 122 c4 66 7 160 7 207 0
120 11 151 73 208 94 85 84 85 233 4 79 -44 150 -75 184 -81 30 -6 69 -15 85
-19 22 -5 38 -3 60 11 17 10 53 25 80 34 28 9 95 39 150 67 115 58 445 163
456 145 4 -6 22 -12 40 -13 19 -1 81 -24 139 -50 58 -26 141 -56 185 -66 44
-11 104 -27 133 -36 47 -15 65 -15 155 -4 56 7 134 16 174 21 40 5 83 14 95
21 13 6 86 74 163 150 147 145 184 169 257 169 34 0 49 -6 78 -34 53 -51 208
-128 269 -134 36 -3 57 0 69 10 9 8 50 27 90 42 l74 29 42 -44 c23 -24 78 -76
122 -115 l80 -72 48 -161 c27 -89 52 -193 56 -230 8 -74 14 -89 42 -109 10 -8
18 -26 18 -43 l0 -29 105 0 c78 0 105 3 105 13 0 6 -32 134 -71 282 -39 149
-75 288 -80 310 -24 121 -119 484 -155 592 -32 99 -80 279 -104 397 l-20 98
34 57 c19 31 37 70 41 87 11 54 -24 390 -56 548 -17 83 -64 285 -105 450 -90
363 -121 467 -209 716 -24 69 -62 184 -85 255 -36 113 -71 193 -222 502 -66
136 -281 350 -407 406 -54 24 -176 46 -254 47 -60 0 -107 20 -107 46 0 8 -6
14 -12 14 -7 0 -58 5 -113 11 -145 16 -165 17 -215 7z m444 -1043 c39 -154 55
-237 76 -400 11 -82 24 -151 30 -153 5 -2 10 -8 10 -13 0 -4 -38 -8 -85 -7
-91 2 -104 20 -16 21 63 1 63 21 0 25 l-44 3 -1 314 c0 173 0 314 2 312 1 -1
14 -47 28 -102z m-1044 -79 c0 -95 -2 -104 -20 -109 -11 -3 -22 -2 -24 1 -4 8
35 212 40 212 2 0 4 -47 4 -104z m7 -186 c5 -100 27 -229 50 -304 l25 -78 86
5 c48 3 141 12 207 20 121 16 204 22 435 32 121 5 124 5 85 -10 -22 -9 -46
-22 -54 -29 -15 -16 -6 -40 11 -30 15 10 67 14 193 18 157 4 172 1 194 -43 26
-50 36 -150 21 -198 -20 -63 -44 -81 -116 -88 -100 -11 -126 -3 -146 48 -25
61 -40 136 -36 186 1 28 -2 46 -10 49 -22 7 -15 -148 9 -212 38 -104 49 -108
209 -92 l76 7 23 58 c17 43 22 73 19 115 -1 31 1 56 5 56 4 0 30 -11 57 -25
52 -26 53 -29 79 -145 6 -28 7 -46 1 -48 -15 -5 -12 -29 4 -35 16 -6 21 -38
36 -209 8 -91 9 -132 1 -147 -17 -30 -166 -152 -246 -200 -123 -74 -286 -148
-434 -196 -139 -46 -146 -47 -227 -41 -45 4 -97 11 -116 17 -18 5 -94 18 -168
28 -178 25 -345 60 -396 82 -22 9 -58 21 -80 25 -54 9 -108 38 -134 71 -37 48
-107 205 -139 314 -17 57 -41 136 -54 175 -17 49 -22 76 -15 87 14 25 23 21
36 -17 15 -42 79 -126 95 -126 7 0 17 8 23 18 10 15 7 23 -15 45 -34 33 -75
113 -68 131 6 15 160 96 182 96 8 0 14 -20 17 -57 5 -69 38 -141 85 -184 34
-30 35 -30 68 -15 18 9 55 16 82 16 35 0 55 5 66 18 25 27 37 99 26 155 -11
60 -44 137 -58 137 -16 0 -14 -11 10 -59 23 -48 35 -135 25 -175 -6 -23 -12
-26 -49 -26 -54 -1 -130 -18 -138 -32 -19 -30 -99 116 -99 181 0 47 24 66 119
97 85 27 91 31 91 57 0 24 3 27 36 27 28 0 35 3 32 18 -2 12 -14 18 -41 20
-28 2 -37 8 -37 22 0 10 -3 25 -6 34 -5 13 1 16 31 16 32 0 36 2 25 15 -7 8
-23 15 -36 15 l-24 0 0 158 c0 189 3 204 39 200 23 -3 26 -8 28 -48z m-532
-923 c19 -69 48 -159 65 -200 37 -94 38 -101 3 -92 -60 14 -145 81 -173 136
-18 35 -18 38 2 145 11 60 25 127 30 149 l10 40 14 -26 c7 -15 29 -83 49 -152z
m1548 -554 c22 -147 29 -244 17 -258 -11 -13 -10 -18 3 -28 8 -7 20 -36 26
-66 16 -75 89 -280 112 -313 11 -14 19 -29 19 -32 0 -3 -21 -27 -47 -53 -27
-27 -73 -75 -103 -108 -52 -56 -218 -170 -286 -195 -27 -11 -50 -35 -95 -102
l-26 -39 -25 43 c-14 24 -38 68 -53 98 -15 30 -57 99 -92 154 -36 54 -82 136
-103 182 -30 64 -44 85 -63 90 -23 5 -24 8 -14 37 12 37 17 456 5 463 -4 3 -8
16 -8 29 l0 25 50 -20 c60 -24 60 -24 60 -6 0 8 -12 17 -26 20 -51 13 -16 16
62 5 156 -22 197 -19 344 27 74 23 155 51 180 63 59 26 57 27 63 -16z m-746
-297 c-8 -19 -161 -33 -182 -16 -11 9 -16 7 -25 -10 -11 -20 -17 -21 -73 -15
-34 4 -63 8 -64 9 -3 3 18 80 23 85 7 7 131 30 169 31 22 1 63 9 90 18 l50 17
9 -52 c4 -29 6 -59 3 -67z m-978 34 c16 -6 57 -10 90 -8 34 1 61 0 61 -4 0 -3
-7 -19 -16 -35 -16 -28 -19 -28 -85 -25 -106 6 -114 2 -137 -70 -11 -35 -25
-81 -30 -103 -6 -22 -10 -31 -11 -20 -1 21 19 133 45 253 l16 72 19 -24 c10
-13 32 -29 48 -36z m2085 -27 l38 -43 -27 -10 c-14 -5 -36 -10 -48 -10 -22 0
-156 36 -164 44 -2 2 26 14 64 26 37 12 72 26 78 31 13 12 15 10 59 -38z
m-154 -62 l135 -38 32 19 c18 11 41 17 51 13 13 -3 22 0 26 10 3 8 14 15 24
15 15 0 19 -7 17 -27 -1 -16 -3 -77 -3 -136 -1 -73 -5 -106 -13 -102 -5 4 -24
0 -42 -8 -80 -36 -201 -78 -221 -75 -28 4 -76 100 -109 221 -28 103 -39 147
-35 147 2 0 64 -18 138 -39z m-952 -73 c-3 -73 -9 -104 -28 -143 -23 -47 -28
-50 -65 -52 -70 -5 -197 -24 -300 -45 -82 -17 -120 -19 -215 -14 -63 3 -130 9
-149 12 -25 5 -32 3 -29 -7 7 -20 168 -41 258 -34 41 3 131 17 199 31 138 27
247 32 254 12 3 -10 9 -8 24 5 43 38 76 20 120 -67 46 -92 123 -229 188 -336
81 -132 94 -161 82 -188 -12 -27 -3 -39 17 -23 8 6 18 10 22 9 10 -3 14 12 7
30 -6 16 55 120 82 139 11 7 56 35 100 62 172 103 201 123 224 154 39 52 144
157 157 157 7 0 25 7 41 14 44 23 237 96 241 91 2 -2 -1 -41 -7 -86 -6 -48 -7
-87 -2 -92 25 -25 108 123 184 328 22 61 44 114 49 120 5 5 25 -7 51 -31 65
-62 117 -99 169 -118 26 -10 50 -21 53 -26 3 -4 23 -17 45 -29 40 -21 55 -11
28 18 -11 11 -8 12 12 6 33 -9 101 -56 108 -73 8 -23 -16 -110 -54 -195 -52
-115 -53 -133 -5 -260 23 -59 41 -115 41 -125 0 -14 -22 -27 -87 -52 -49 -18
-109 -44 -136 -58 -47 -25 -48 -25 -100 -9 -73 23 -207 101 -237 137 -25 31
-25 31 -91 21 -37 -5 -81 -17 -100 -26 -18 -10 -96 -79 -172 -154 -76 -75
-148 -139 -159 -144 -19 -7 -268 -39 -298 -38 -26 0 -132 19 -205 36 -38 9
-127 41 -196 71 -69 30 -132 54 -139 54 -7 0 -10 7 -6 15 9 25 -30 18 -225
-40 -113 -34 -217 -72 -269 -99 -106 -55 -268 -116 -306 -116 -57 0 -133 29
-280 104 l-149 77 -57 107 c-32 59 -58 115 -58 124 0 18 107 118 127 118 16 0
16 10 3 45 -9 23 -6 28 30 53 47 33 46 31 60 129 6 44 22 119 36 168 14 50 34
126 44 170 22 100 28 113 51 125 27 15 44 13 30 -3 -16 -20 -3 -27 30 -15 21
7 55 6 117 -2 160 -23 251 -23 368 -1 60 12 147 21 194 22 47 0 119 6 160 14
133 23 123 29 118 -77z m-1167 -369 c-6 -27 -11 -63 -11 -79 0 -20 -9 -35 -30
-50 -29 -20 -30 -20 -30 -2 0 25 27 117 53 177 18 40 23 46 25 27 2 -12 -1
-45 -7 -73z"/>
<path d="M2990 3006 c0 -33 10 -57 21 -50 16 9 11 74 -6 74 -9 0 -15 -9 -15
-24z"/>
<path d="M1800 2886 c0 -32 17 -69 29 -62 12 8 1 64 -15 77 -11 9 -14 6 -14
-15z"/>
<path d="M3260 2801 c0 -5 7 -14 15 -21 13 -10 15 -9 15 9 0 12 -6 21 -15 21
-8 0 -15 -4 -15 -9z"/>
<path d="M1493 2625 c-3 -9 -3 -19 1 -22 7 -7 36 16 36 28 0 15 -30 10 -37 -6z"/>
<path d="M1544 2626 c-10 -27 2 -43 14 -19 8 14 9 24 2 28 -6 3 -13 -1 -16 -9z"/>
<path d="M2440 2304 c-21 -25 -16 -75 9 -96 31 -24 48 -12 22 16 -25 27 -27
54 -4 63 12 5 29 -7 59 -40 45 -51 54 -56 54 -32 0 22 -86 105 -109 105 -10 0
-24 -7 -31 -16z"/>
<path d="M2770 485 c-15 -18 -15 -48 -2 -95 16 -55 181 -390 193 -390 16 0 3
33 -89 220 -81 163 -104 231 -84 244 5 3 15 -14 22 -37 7 -23 39 -96 73 -162
89 -177 108 -217 118 -242 9 -25 29 -31 29 -9 0 7 -37 87 -83 177 -46 90 -94
193 -107 229 -29 80 -45 95 -70 65z"/>
<path d="M2172 468 c-16 -16 -15 -40 2 -75 8 -15 36 -107 61 -203 44 -164 57
-201 70 -189 3 3 -17 86 -45 184 -27 99 -48 181 -46 182 7 7 105 -253 123
-326 5 -19 15 -37 22 -39 21 -7 9 36 -107 363 -12 33 -24 72 -27 88 -6 29 -32
36 -53 15z m28 -29 c0 -11 -4 -18 -10 -14 -5 3 -7 12 -3 20 7 21 13 19 13 -6z"/>
<path d="M861 40 c-18 -33 -20 -40 -7 -40 19 0 51 59 39 71 -6 6 -18 -7 -32
-31z"/>
</g>
</svg>
